<svg width="1373" height="452" viewBox="0 0 1373 452" fill="none" xmlns="http://www.w3.org/2000/svg">
<rect x="20.5107" y="88.9102" width="1313" height="353" transform="rotate(-3.41067 20.5107 88.9102)" fill="#121212"/>
<path d="M1215.45 291.174L1204.07 100.297L1231.41 98.6676L1240.8 256.211L1280.55 253.841L1282.54 287.175L1215.45 291.174Z" fill="#CBFD6E"/>
<path d="M1162.09 297.144C1151.96 297.748 1143.21 294.553 1135.85 287.558C1128.54 280.47 1122.67 269.758 1118.22 255.421C1113.83 241.081 1111 223.24 1109.72 201.899L1109.71 201.635C1108.44 180.382 1109.14 162.375 1111.79 147.615C1114.51 132.851 1119.07 121.517 1125.48 113.612C1131.95 105.616 1140.25 101.316 1150.38 100.712C1160.45 100.112 1169.17 103.397 1176.54 110.569C1183.91 117.652 1189.79 128.364 1194.18 142.705C1198.57 157.046 1201.39 174.842 1202.66 196.095L1202.68 196.359C1203.95 217.7 1203.26 235.751 1200.6 250.511C1197.95 265.272 1193.38 276.606 1186.91 284.514C1180.43 292.334 1172.16 296.544 1162.09 297.144ZM1160.05 262.884C1164.12 262.641 1167.39 260.19 1169.84 255.531C1172.35 250.868 1174.01 243.822 1174.81 234.393C1175.67 224.873 1175.66 212.749 1174.78 198.022L1174.77 197.757C1173.89 183.03 1172.46 171.035 1170.48 161.773C1168.56 152.418 1166.08 145.574 1163.03 141.243C1159.97 136.823 1156.44 134.732 1152.42 134.972C1148.35 135.215 1145.05 137.712 1142.55 142.463C1140.1 147.123 1138.44 154.213 1137.58 163.733C1136.72 173.166 1136.73 185.245 1137.6 199.972L1137.62 200.237C1138.5 215.052 1139.93 227.091 1141.91 236.354C1143.89 245.617 1146.37 252.416 1149.36 256.751C1152.34 261.087 1155.91 263.131 1160.05 262.884Z" fill="#CBFD6E"/>
<path d="M1068.44 302.723C1058.24 303.33 1049.47 300.18 1042.11 293.273C1034.82 286.363 1028.98 275.737 1024.59 261.396C1020.2 247.056 1017.36 229.039 1016.06 207.345L1016.04 206.948C1014.75 185.343 1015.41 167.162 1018 152.405C1020.65 137.644 1025.16 126.446 1031.53 118.81C1037.95 111.082 1046.13 106.921 1056.08 106.329C1065.35 105.776 1073.31 108.222 1079.95 113.667C1086.66 119.108 1091.97 126.934 1095.86 137.145C1099.75 147.267 1102.26 159.242 1103.4 173.068L1103.86 179.28L1077.36 180.86L1076.83 175.183C1076.13 167.525 1074.97 161.134 1073.36 156.008C1071.75 150.794 1069.69 146.891 1067.18 144.297C1064.72 141.611 1061.86 140.366 1058.59 140.561C1054.57 140.8 1051.31 143.252 1048.79 147.915C1046.34 152.574 1044.69 159.664 1043.83 169.185C1043.03 178.613 1043.06 190.647 1043.94 205.286L1043.95 205.55C1044.82 220.189 1046.22 232.23 1048.15 241.673C1050.13 251.024 1052.62 257.911 1055.61 262.335C1058.66 266.667 1062.25 268.709 1066.39 268.463C1069.61 268.271 1072.25 266.83 1074.32 264.141C1076.39 261.451 1077.92 257.466 1078.91 252.185C1079.89 246.817 1080.33 240.065 1080.21 231.93L1080.06 226.231L1106.56 224.651L1106.86 231.138C1107.37 246.064 1106.24 258.787 1103.46 269.307C1100.67 279.739 1096.34 287.784 1090.48 293.444C1084.62 299.103 1077.27 302.196 1068.44 302.723Z" fill="#CBFD6E"/>
<path d="M970.336 308.57C960.204 309.174 951.457 305.978 944.096 298.983C936.792 291.896 930.914 281.184 926.464 266.847C922.075 252.507 919.245 234.666 917.973 213.325L917.957 213.06C916.69 191.808 917.384 173.801 920.039 159.041C922.755 144.277 927.318 132.942 933.729 125.038C940.197 117.042 948.497 112.741 958.629 112.138C968.7 111.537 977.421 114.823 984.792 121.995C992.158 129.078 998.036 139.79 1002.42 154.131C1006.81 168.471 1009.64 186.268 1010.91 207.521L1010.92 207.785C1012.2 229.126 1011.5 247.177 1008.85 261.937C1006.2 276.698 1001.63 288.032 995.159 295.94C988.681 303.76 980.407 307.97 970.336 308.57ZM968.294 274.31C972.372 274.067 975.636 271.616 978.086 266.957C980.598 262.293 982.255 255.248 983.058 245.819C983.916 236.298 983.907 224.175 983.029 209.448L983.013 209.183C982.136 194.456 980.708 182.461 978.73 173.198C976.808 163.843 974.323 157 971.275 152.668C968.221 148.249 964.687 146.158 960.671 146.398C956.593 146.641 953.301 149.138 950.794 153.889C948.344 158.549 946.689 165.638 945.831 175.159C944.967 184.591 944.974 196.671 945.851 211.398L945.867 211.662C946.75 226.478 948.181 238.517 950.159 247.78C952.137 257.043 954.619 263.842 957.606 268.177C960.592 272.513 964.155 274.557 968.294 274.31Z" fill="#CBFD6E"/>
<path d="M873.092 311.576L863.702 154.033L837.476 155.596L835.489 122.262L915.188 117.512L917.174 150.846L890.948 152.409L900.337 309.952L873.092 311.576Z" fill="#CBFD6E"/>
<path d="M803.607 318.508C793.474 319.112 784.728 315.916 777.367 308.921C770.062 301.834 764.185 291.122 759.734 276.785C755.345 262.444 752.515 244.603 751.243 223.262L751.227 222.998C749.961 201.745 750.655 183.739 753.309 168.978C756.025 154.214 760.589 142.88 767 134.975C773.468 126.979 781.767 122.679 791.9 122.075C801.97 121.475 810.691 124.761 818.063 131.932C825.429 139.015 831.306 149.727 835.695 164.068C840.084 178.409 842.912 196.206 844.178 217.458L844.194 217.723C845.466 239.064 844.775 257.114 842.12 271.875C839.466 286.635 834.902 297.969 828.429 305.878C821.951 313.698 813.677 317.908 803.607 318.508ZM801.565 284.248C805.642 284.005 808.906 281.554 811.357 276.894C813.869 272.231 815.526 265.185 816.328 255.756C817.187 246.236 817.177 234.112 816.3 219.385L816.284 219.121C815.406 204.394 813.978 192.399 812 183.136C810.079 173.781 807.594 166.938 804.545 162.606C801.492 158.186 797.957 156.096 793.941 156.335C789.864 156.578 786.572 159.075 784.065 163.827C781.614 168.486 779.96 175.576 779.101 185.097C778.237 194.529 778.244 206.608 779.122 221.335L779.138 221.6C780.021 236.415 781.451 248.454 783.429 257.717C785.407 266.98 787.89 273.779 790.876 278.115C793.863 282.45 797.425 284.494 801.565 284.248Z" fill="#CBFD6E"/>
<path d="M670.497 323.65L659.121 132.773L700.824 130.288C709.844 129.75 717.485 131.552 723.745 135.692C730.001 139.744 734.872 146.047 738.358 154.601C741.905 163.151 744.052 173.687 744.798 186.209L744.822 186.606C745.558 198.952 744.593 209.806 741.927 219.169C739.261 228.532 735.181 235.501 729.687 240.076L755.2 318.602L726.193 320.331L704.212 249.559C703.78 249.585 703.347 249.611 702.915 249.636C702.482 249.662 702.05 249.688 701.617 249.714L693.462 250.2L697.743 322.027L670.497 323.65ZM691.751 221.495L702.501 220.855C708 220.527 711.936 217.903 714.308 212.983C716.738 207.971 717.653 200.438 717.054 190.385L717.038 190.12C716.444 180.155 714.646 172.873 711.644 168.273C708.636 163.585 704.476 161.399 699.163 161.716L688.227 162.367L691.751 221.495Z" fill="#CBFD6E"/>
<path d="M592.837 268.279L590.953 236.665L613.287 235.334C619.527 234.962 623.933 231.912 626.506 226.183C629.14 220.451 630.121 211.941 629.448 200.653L629.425 200.256C628.741 188.792 626.757 180.459 623.471 175.256C620.241 169.962 615.537 167.498 609.359 167.867L586.932 169.203L585.024 137.192L612.455 135.557C621.228 135.034 628.8 137.238 635.17 142.168C641.54 147.099 646.564 154.41 650.241 164.103C653.976 173.703 656.242 185.206 657.041 198.61L657.057 198.875C657.861 212.367 656.979 224.101 654.412 234.078C651.901 243.962 647.776 251.73 642.036 257.382C636.297 263.034 629.041 266.122 620.268 266.645L592.837 268.279ZM582.777 328.881L571.401 138.004L598.647 136.38L610.023 327.257L582.777 328.881Z" fill="#CBFD6E"/>
<path d="M480.177 334.994L468.801 144.117L537.379 140.03L539.365 173.364L498.033 175.827L500.753 221.463L539.861 219.133L541.706 250.086L502.598 252.416L505.436 300.036L546.768 297.573L548.754 330.907L480.177 334.994Z" fill="#CBFD6E"/>
<path d="M433.027 340.595C424.13 341.125 416.524 339.366 410.206 335.318C403.883 331.181 398.874 325.152 395.178 317.23C391.482 309.309 389.176 299.756 388.262 288.571L388.002 284.206L413.765 282.67L414.117 287.03C414.648 291.777 415.66 295.744 417.152 298.929C418.638 302.027 420.544 304.347 422.868 305.89C425.248 307.341 427.921 307.978 430.887 307.801C433.852 307.624 436.31 306.726 438.259 305.105C440.265 303.393 441.74 301.092 442.684 298.204C443.628 295.316 443.987 291.976 443.761 288.184L443.745 287.919C443.398 282.099 441.832 277.148 439.047 273.066C436.256 268.896 431.408 264.539 424.503 259.994L414.532 253.42C405.319 247.597 398.172 240.545 393.09 232.264C388.065 223.89 385.166 213.222 384.393 200.259L384.378 199.994C383.747 189.412 384.83 180.011 387.626 171.791C390.484 163.567 394.775 157.028 400.5 152.173C406.225 147.319 413.165 144.648 421.32 144.162C429.908 143.651 437.211 145.516 443.23 149.759C449.244 153.914 453.975 159.96 457.424 167.896C460.873 175.833 462.978 185.132 463.737 195.795L464.121 200.684L438.451 202.214L438.098 197.854C437.629 193.104 436.744 189.174 435.443 186.065C434.198 182.865 432.568 180.484 430.553 178.923C428.538 177.362 426.14 176.664 423.36 176.829C420.709 177.076 418.442 178.052 416.559 179.757C414.739 181.458 413.387 183.751 412.505 186.636C411.685 189.517 411.385 192.809 411.606 196.513L411.614 196.645C411.945 202.201 413.402 206.893 415.987 210.721C418.571 214.55 422.733 218.328 428.474 222.057L438.622 228.488C445.919 233.363 451.828 238.365 456.35 243.494C460.933 248.619 464.377 254.388 466.681 260.799C468.98 267.123 470.382 274.517 470.886 282.983L470.902 283.247C471.57 294.447 470.48 304.247 467.632 312.647C464.785 321.047 460.406 327.68 454.496 332.545C448.647 337.407 441.491 340.091 433.027 340.595Z" fill="#CBFD6E"/>
<path d="M342.434 345.994C333.538 346.525 325.722 344.38 318.986 339.56C312.251 334.74 306.864 327.583 302.826 318.089C298.783 308.506 296.346 296.748 295.516 282.815L287.893 154.902L315.231 153.273L322.846 281.053C323.267 288.108 324.203 293.938 325.656 298.542C327.165 303.053 329.164 306.43 331.654 308.671C334.143 310.912 337.056 311.933 340.392 311.734C343.729 311.536 346.5 310.176 348.705 307.655C350.911 305.134 352.495 301.544 353.458 296.885C354.415 292.137 354.683 286.236 354.263 279.181L346.647 151.401L373.893 149.777L381.516 277.69C382.341 291.535 381.316 303.455 378.439 313.449C375.625 323.44 371.16 331.229 365.045 336.815C358.929 342.401 351.392 345.461 342.434 345.994Z" fill="#CBFD6E"/>
<path d="M246.096 351.734C235.964 352.338 227.217 349.143 219.856 342.147C212.551 335.06 206.674 324.348 202.223 310.011C197.835 295.671 195.004 277.83 193.732 256.489L193.717 256.224C192.45 234.972 193.144 216.965 195.798 202.205C198.515 187.441 203.078 176.106 209.489 168.202C215.957 160.206 224.257 155.905 234.389 155.302C244.459 154.701 253.18 157.987 260.552 165.159C267.918 172.242 273.796 182.954 278.184 197.295C282.573 211.635 285.401 229.432 286.667 250.685L286.683 250.949C287.955 272.29 287.264 290.341 284.609 305.101C281.955 319.862 277.391 331.196 270.919 339.104C264.441 346.924 256.166 351.134 246.096 351.734ZM244.054 317.474C248.132 317.231 251.396 314.78 253.846 310.121C256.358 305.457 258.015 298.412 258.817 288.983C259.676 279.462 259.666 267.339 258.789 252.612L258.773 252.347C257.895 237.62 256.467 225.625 254.489 216.362C252.568 207.008 250.083 200.164 247.035 195.833C243.981 191.413 240.447 189.322 236.431 189.562C232.353 189.805 229.061 192.302 226.554 197.053C224.104 201.713 222.449 208.803 221.591 218.323C220.727 227.755 220.734 239.835 221.611 254.562L221.627 254.827C222.51 269.642 223.94 281.681 225.919 290.944C227.897 300.207 230.379 307.006 233.365 311.341C236.352 315.677 239.915 317.721 244.054 317.474Z" fill="#CBFD6E"/>
<path d="M103.44 357.447L92.0645 166.57L119.403 164.941L124.015 242.324L158.211 240.286L153.599 162.903L180.938 161.274L192.313 352.151L164.975 353.78L160.198 273.62L126.001 275.658L130.779 355.818L103.44 357.447Z" fill="#CBFD6E"/>
</svg>
