<svg width="1178" height="293" viewBox="0 0 1178 293" fill="none" xmlns="http://www.w3.org/2000/svg">
<path d="M1154.8 165.73H1177.22V291.388H1154.8V165.73Z" fill="white"/>
<path d="M1020.36 246.697C1020.36 240.284 1021.64 234.275 1024.22 228.67C1026.84 223.065 1030.56 218.167 1035.35 213.976C1040.2 209.785 1046.03 206.477 1052.85 204.054C1059.72 201.63 1067.42 200.418 1075.95 200.418C1084.48 200.418 1092.16 201.63 1098.98 204.054C1105.84 206.477 1111.68 209.785 1116.47 213.976C1121.32 218.167 1125.03 223.065 1127.61 228.67C1130.23 234.275 1131.55 240.284 1131.55 246.697C1131.55 253.11 1130.23 259.119 1127.61 264.724C1125.03 270.329 1121.32 275.227 1116.47 279.418C1111.68 283.609 1105.84 286.917 1098.98 289.34C1092.16 291.764 1084.48 292.976 1075.95 292.976C1067.42 292.976 1059.72 291.764 1052.85 289.34C1046.03 286.917 1040.2 283.609 1035.35 279.418C1030.56 275.227 1026.84 270.329 1024.22 264.724C1021.64 259.119 1020.36 253.11 1020.36 246.697ZM1043.91 246.697C1043.91 250.282 1044.62 253.691 1046.03 256.922C1047.5 260.104 1049.59 262.931 1052.32 265.406C1055.1 267.829 1058.45 269.773 1062.39 271.238C1066.38 272.652 1070.9 273.359 1075.95 273.359C1081 273.359 1085.49 272.652 1089.43 271.238C1093.42 269.773 1096.78 267.829 1099.51 265.406C1102.28 262.931 1104.38 260.104 1105.79 256.922C1107.26 253.691 1107.99 250.282 1107.99 246.697C1107.99 243.112 1107.26 239.703 1105.79 236.472C1104.38 233.24 1102.28 230.412 1099.51 227.988C1096.78 225.514 1093.42 223.57 1089.43 222.156C1085.49 220.692 1081 219.96 1075.95 219.96C1070.9 219.96 1066.38 220.692 1062.39 222.156C1058.45 223.57 1055.1 225.514 1052.32 227.988C1049.59 230.412 1047.5 233.24 1046.03 236.472C1044.62 239.703 1043.91 243.112 1043.91 246.697Z" fill="white"/>
<path d="M904.771 246.924C904.771 240.36 905.958 234.25 908.331 228.594C910.755 222.888 914.265 217.965 918.86 213.825C923.505 209.633 929.161 206.351 935.826 203.978C942.542 201.605 950.192 200.418 958.776 200.418C962.513 200.418 966.275 200.645 970.062 201.1C973.849 201.554 977.485 202.211 980.969 203.069C984.504 203.877 987.811 204.862 990.891 206.023C993.972 207.134 996.648 208.371 998.92 209.734L988.543 226.625C983.645 224.353 979 222.686 974.607 221.626C970.264 220.566 965.846 220.035 961.352 220.035C956.201 220.035 951.581 220.717 947.491 222.081C943.401 223.393 939.916 225.262 937.038 227.686C934.21 230.059 932.039 232.887 930.524 236.169C929.06 239.4 928.328 242.935 928.328 246.773C928.328 250.61 929.11 254.17 930.676 257.453C932.292 260.684 934.539 263.487 937.417 265.86C940.346 268.183 943.855 270.026 947.945 271.389C952.086 272.702 956.681 273.359 961.73 273.359C967.285 273.359 972.511 272.576 977.409 271.011C982.358 269.445 986.953 267.35 991.194 264.724L1001.57 281.615C998.895 283.23 995.991 284.745 992.861 286.159C989.73 287.523 986.372 288.709 982.787 289.719C979.252 290.729 975.516 291.512 971.577 292.067C967.689 292.673 963.649 292.976 959.458 292.976C950.924 292.976 943.274 291.815 936.508 289.492C929.741 287.169 924.01 283.963 919.314 279.873C914.618 275.732 911.008 270.859 908.483 265.254C906.009 259.649 904.771 253.539 904.771 246.924Z" fill="white"/>
<path d="M776.312 246.697C776.312 240.284 777.599 234.275 780.174 228.67C782.8 223.065 786.512 218.167 791.309 213.976C796.156 209.785 801.988 206.477 808.805 204.054C815.673 201.63 823.373 200.418 831.907 200.418C840.441 200.418 848.116 201.63 854.933 204.054C861.8 206.477 867.633 209.785 872.43 213.976C877.277 218.167 880.989 223.065 883.564 228.67C886.19 234.275 887.502 240.284 887.502 246.697C887.502 253.11 886.19 259.119 883.564 264.724C880.989 270.329 877.277 275.227 872.43 279.418C867.633 283.609 861.8 286.917 854.933 289.34C848.116 291.764 840.441 292.976 831.907 292.976C823.373 292.976 815.673 291.764 808.805 289.34C801.988 286.917 796.156 283.609 791.309 279.418C786.512 275.227 782.8 270.329 780.174 264.724C777.599 259.119 776.312 253.11 776.312 246.697ZM799.868 246.697C799.868 250.282 800.575 253.691 801.988 256.922C803.453 260.104 805.548 262.931 808.275 265.406C811.052 267.829 814.41 269.773 818.349 271.238C822.338 272.652 826.857 273.359 831.907 273.359C836.957 273.359 841.451 272.652 845.389 271.238C849.378 269.773 852.736 267.829 855.463 265.406C858.24 262.931 860.336 260.104 861.75 256.922C863.214 253.691 863.946 250.282 863.946 246.697C863.946 243.112 863.214 239.703 861.75 236.472C860.336 233.24 858.24 230.412 855.463 227.988C852.736 225.514 849.378 223.57 845.389 222.156C841.451 220.692 836.957 219.96 831.907 219.96C826.857 219.96 822.338 220.692 818.349 222.156C814.41 223.57 811.052 225.514 808.275 227.988C805.548 230.412 803.453 233.24 801.988 236.472C800.575 239.703 799.868 243.112 799.868 246.697Z" fill="white"/>
<path d="M717.762 218.824H696.175V202.009H717.762V174.211H740.182V202.009H761.768V218.824H740.182V291.386H717.762V218.824Z" fill="white"/>
<path d="M570.441 246.697C570.441 240.284 571.729 234.275 574.304 228.67C576.93 223.065 580.641 218.167 585.439 213.976C590.286 209.785 596.118 206.477 602.935 204.054C609.803 201.63 617.503 200.418 626.037 200.418C634.571 200.418 642.246 201.63 649.063 204.054C655.93 206.477 661.762 209.785 666.559 213.976C671.407 218.167 675.118 223.065 677.694 228.67C680.319 234.275 681.632 240.284 681.632 246.697C681.632 253.11 680.319 259.119 677.694 264.724C675.118 270.329 671.407 275.227 666.559 279.418C661.762 283.609 655.93 286.917 649.063 289.34C642.246 291.764 634.571 292.976 626.037 292.976C617.503 292.976 609.803 291.764 602.935 289.34C596.118 286.917 590.286 283.609 585.439 279.418C580.641 275.227 576.93 270.329 574.304 264.724C571.729 259.119 570.441 253.11 570.441 246.697ZM593.998 246.697C593.998 250.282 594.704 253.691 596.118 256.922C597.583 260.104 599.678 262.931 602.405 265.406C605.182 267.829 608.54 269.773 612.479 271.238C616.468 272.652 620.987 273.359 626.037 273.359C631.086 273.359 635.581 272.652 639.519 271.238C643.508 269.773 646.866 267.829 649.593 265.406C652.37 262.931 654.466 260.104 655.88 256.922C657.344 253.691 658.076 250.282 658.076 246.697C658.076 243.112 657.344 239.703 655.88 236.472C654.466 233.24 652.37 230.412 649.593 227.988C646.866 225.514 643.508 223.57 639.519 222.156C635.581 220.692 631.086 219.96 626.037 219.96C620.987 219.96 616.468 220.692 612.479 222.156C608.54 223.57 605.182 225.514 602.405 227.988C599.678 230.412 597.583 233.24 596.118 236.472C594.704 239.703 593.998 243.112 593.998 246.697Z" fill="white"/>
<path d="M497.955 202.01H520.375V214.886C525.324 211.2 530.55 208.018 536.054 205.342C541.558 202.666 547.037 200.621 552.49 199.207L559.08 219.733C550.445 220.592 542.846 222.536 536.281 225.566C529.767 228.545 524.465 232.761 520.375 238.215V291.386H497.955V202.01Z" fill="white"/>
<path d="M358.815 173H421.228C430.317 173 438.194 173.985 444.86 175.954C451.525 177.923 457.054 180.776 461.447 184.513C465.84 188.199 469.097 192.718 471.218 198.071C473.39 203.423 474.475 209.458 474.475 216.174C474.475 222.486 473.415 228.318 471.294 233.67C469.173 239.023 465.916 243.668 461.523 247.607C457.181 251.495 451.677 254.55 445.011 256.772C438.346 258.943 430.468 260.029 421.379 260.029L382.826 259.953V291.387H358.815V173ZM421.834 239.2C426.378 239.2 430.342 238.669 433.725 237.609C437.159 236.498 440.012 234.958 442.284 232.989C444.607 230.969 446.324 228.545 447.435 225.717C448.596 222.839 449.177 219.658 449.177 216.174C449.177 209.155 446.879 203.701 442.284 199.813C437.74 195.874 430.923 193.905 421.834 193.905H382.826V239.2H421.834Z" fill="white"/>
<path d="M881.367 104.394C881.367 98.3346 882.604 92.5529 885.079 87.0489C887.553 81.4944 891.113 76.5963 895.758 72.3547C900.404 68.1131 906.085 64.7299 912.801 62.2051C919.567 59.6804 927.242 58.418 935.826 58.418C944.36 58.418 952.036 59.7056 958.852 62.2809C965.72 64.8056 971.527 68.2898 976.273 72.7334C981.07 77.177 984.731 82.4033 987.256 88.4123C989.831 94.4212 991.119 100.859 991.119 107.727C991.119 108.585 991.094 109.519 991.043 110.529C991.043 111.489 990.993 112.372 990.892 113.18H906.362C907.322 115.857 908.862 118.306 910.983 120.527C913.154 122.749 915.856 124.668 919.087 126.284C922.319 127.9 926.056 129.162 930.297 130.071C934.539 130.929 939.235 131.359 944.385 131.359C949.536 131.359 954.661 130.828 959.761 129.768C964.861 128.657 969.734 127.268 974.38 125.602L981.954 142.72C979.025 144.083 976.046 145.295 973.016 146.356C970.037 147.366 966.906 148.224 963.624 148.931C960.392 149.587 956.984 150.092 953.399 150.446C949.864 150.799 946.128 150.976 942.189 150.976C932.14 150.976 923.329 149.764 915.755 147.34C908.18 144.917 901.843 141.609 896.743 137.418C891.643 133.227 887.805 128.304 885.23 122.648C882.655 116.993 881.367 110.908 881.367 104.394ZM967.336 95.6836C966.528 93.2093 965.265 90.9118 963.549 88.791C961.882 86.6197 959.787 84.7513 957.262 83.186C954.737 81.5701 951.808 80.3077 948.476 79.3988C945.143 78.4899 941.482 78.0354 937.493 78.0354C933.251 78.0354 929.388 78.5152 925.904 79.4746C922.42 80.434 919.365 81.7216 916.739 83.3375C914.113 84.9533 911.917 86.8216 910.15 88.9425C908.433 91.0633 907.17 93.3103 906.362 95.6836H967.336Z" fill="white"/>
<path d="M772.676 121.966C778.735 125.602 785.4 128.278 792.672 129.995C799.943 131.712 807.391 132.571 815.016 132.571C820.167 132.571 824.459 132.217 827.892 131.51C831.326 130.803 834.078 129.894 836.148 128.783C838.219 127.672 839.683 126.41 840.541 124.996C841.4 123.582 841.829 122.143 841.829 120.679C841.829 118.558 840.895 116.74 839.027 115.225C837.209 113.71 834.179 112.953 829.937 112.953C827.968 112.953 825.847 113.079 823.575 113.332C821.303 113.584 818.904 113.862 816.379 114.165C813.905 114.417 811.305 114.67 808.578 114.922C805.902 115.175 803.175 115.301 800.398 115.301C794.338 115.301 789.162 114.645 784.87 113.332C780.629 112.019 777.17 110.226 774.493 107.954C771.817 105.682 769.873 103.005 768.661 99.9252C767.449 96.7945 766.843 93.4366 766.843 89.8514C766.843 85.3068 767.904 81.1157 770.025 77.278C772.145 73.4404 775.175 70.1329 779.114 67.3557C783.052 64.5279 787.799 62.3314 793.353 60.766C798.958 59.2006 805.195 58.418 812.062 58.418C815.647 58.418 819.384 58.6452 823.272 59.0997C827.211 59.5036 831.074 60.0591 834.861 60.766C838.648 61.4729 842.284 62.3061 845.768 63.2655C849.252 64.1744 852.332 65.1591 855.008 66.2195L847.964 83.6404C842.258 81.5196 836.552 79.8533 830.846 78.6414C825.191 77.379 819.359 76.7478 813.35 76.7478C809.159 76.7478 805.599 77.076 802.67 77.7325C799.792 78.3384 797.444 79.1716 795.626 80.232C793.808 81.2419 792.47 82.4285 791.611 83.7919C790.803 85.1048 790.399 86.4934 790.399 87.9578C790.399 89.0182 790.601 89.9776 791.005 90.836C791.46 91.6945 792.167 92.4519 793.126 93.1083C794.136 93.7143 795.424 94.194 796.989 94.5475C798.605 94.8504 800.574 95.0019 802.897 95.0019C805.018 95.0019 807.265 94.8757 809.638 94.6232C812.012 94.3707 814.486 94.1182 817.061 93.8658C819.636 93.5628 822.287 93.2851 825.014 93.0326C827.791 92.7801 830.619 92.6539 833.497 92.6539C838.85 92.6539 843.521 93.2851 847.51 94.5475C851.549 95.8098 854.882 97.5772 857.508 99.8495C860.134 102.122 862.103 104.798 863.416 107.878C864.729 110.958 865.385 114.316 865.385 117.952C865.385 122.648 864.3 127.016 862.128 131.056C859.957 135.095 856.725 138.605 852.433 141.584C848.141 144.513 842.788 146.81 836.376 148.477C830.013 150.143 822.641 150.976 814.259 150.976C809.108 150.976 804.134 150.648 799.337 149.991C794.54 149.385 789.97 148.552 785.628 147.492C781.285 146.381 777.195 145.093 773.357 143.629C769.57 142.165 766.111 140.599 762.98 138.933L772.676 121.966Z" fill="white"/>
<path d="M639.746 59.9336H662.09V103.562C662.09 107.702 662.545 111.489 663.454 114.923C664.363 118.306 665.903 121.21 668.074 123.634C670.296 126.057 673.225 127.951 676.86 129.314C680.546 130.627 685.116 131.284 690.57 131.284C693.145 131.284 695.746 131.006 698.371 130.45C701.048 129.895 703.598 129.138 706.021 128.178C708.445 127.168 710.692 125.982 712.762 124.618C714.883 123.255 716.701 121.765 718.216 120.149V59.9336H740.636V149.386H718.216V141.736C712.712 145.018 707.183 147.366 701.628 148.78C696.074 150.194 690.797 150.901 685.798 150.901C677.618 150.901 670.599 149.916 664.741 147.947C658.934 145.978 654.163 143.125 650.426 139.388C646.74 135.601 644.038 130.981 642.321 125.527C640.605 120.023 639.746 113.762 639.746 106.743V59.9336Z" fill="white"/>
<path d="M505.908 104.697C505.908 98.2841 507.196 92.2752 509.771 86.6702C512.397 81.0652 516.108 76.1671 520.905 71.976C525.753 67.7849 531.585 64.4774 538.402 62.0536C545.269 59.6299 552.97 58.418 561.504 58.418C570.037 58.418 577.713 59.6299 584.53 62.0536C591.397 64.4774 597.229 67.7849 602.026 71.976C606.874 76.1671 610.585 81.0652 613.16 86.6702C615.786 92.2752 617.099 98.2841 617.099 104.697C617.099 111.11 615.786 117.119 613.16 122.724C610.585 128.329 606.874 133.227 602.026 137.418C597.229 141.609 591.397 144.917 584.53 147.34C577.713 149.764 570.037 150.976 561.504 150.976C552.97 150.976 545.269 149.764 538.402 147.34C531.585 144.917 525.753 141.609 520.905 137.418C516.108 133.227 512.397 128.329 509.771 122.724C507.196 117.119 505.908 111.11 505.908 104.697ZM529.464 104.697C529.464 108.282 530.171 111.691 531.585 114.922C533.049 118.104 535.145 120.931 537.872 123.406C540.649 125.829 544.007 127.773 547.946 129.238C551.935 130.652 556.454 131.359 561.504 131.359C566.553 131.359 571.047 130.652 574.986 129.238C578.975 127.773 582.333 125.829 585.06 123.406C587.837 120.931 589.933 118.104 591.346 114.922C592.811 111.691 593.543 108.282 593.543 104.697C593.543 101.112 592.811 97.7034 591.346 94.4717C589.933 91.24 587.837 88.4123 585.06 85.9885C582.333 83.5142 578.975 81.5701 574.986 80.1562C571.047 78.6919 566.553 77.9597 561.504 77.9597C556.454 77.9597 551.935 78.6919 547.946 80.1562C544.007 81.5701 540.649 83.5142 537.872 85.9885C535.145 88.4123 533.049 91.24 531.585 94.4717C530.171 97.7034 529.464 101.112 529.464 104.697Z" fill="white"/>
<path d="M358.739 31H382.75V61.9032H456.372V31H480.458V149.387H456.372V82.4296H382.75V149.387H358.739V31Z" fill="white"/>
<path d="M153.722 2.50517e-05C153.786 -0.000788905 153.849 0.0182553 153.902 0.053736L307.682 104.261C307.701 104.274 307.715 104.292 307.723 104.314C307.731 104.335 307.731 104.359 307.724 104.381C307.717 104.403 307.703 104.422 307.685 104.436C307.667 104.449 307.644 104.456 307.621 104.456C301.628 104.425 296.522 104.447 292.301 104.522C281.285 104.712 279.194 114.3 279.194 123.23C279.191 139.6 279.193 185.595 279.203 261.211C279.203 265.146 279.553 269.692 280.253 274.849C281.09 280.99 282.646 286.935 284.92 292.68C284.934 292.714 284.938 292.752 284.934 292.789C284.93 292.826 284.917 292.863 284.896 292.894C284.875 292.925 284.846 292.95 284.813 292.968C284.78 292.985 284.744 292.995 284.706 292.995H254.372C254.346 292.995 254.319 292.988 254.296 292.976C254.273 292.963 254.253 292.945 254.239 292.923C254.224 292.901 254.215 292.876 254.212 292.85C254.21 292.823 254.213 292.797 254.223 292.772C258.862 280.636 260.131 267.569 260.14 254.336C260.159 229.205 260.16 208.172 260.145 191.237C260.145 191.147 260.109 191.061 260.044 190.997C259.98 190.934 259.892 190.898 259.801 190.898H205.705C205.635 190.899 205.568 190.926 205.518 190.976C205.468 191.025 205.441 191.093 205.441 191.163C205.385 230.948 205.393 254.605 205.464 262.136C205.566 272.703 207.419 282.903 211.023 292.735C211.033 292.765 211.037 292.796 211.033 292.827C211.028 292.858 211.016 292.888 210.997 292.913C210.979 292.939 210.955 292.959 210.927 292.974C210.899 292.988 210.869 292.995 210.837 292.995H180.587C180.558 292.996 180.529 292.989 180.503 292.976C180.477 292.962 180.455 292.943 180.439 292.919C180.422 292.895 180.412 292.868 180.409 292.839C180.405 292.81 180.409 292.781 180.419 292.754C182.176 288.335 183.503 283.547 184.399 278.391C185.719 270.805 186.388 262.985 186.407 254.932C186.453 235.121 186.462 214.825 186.434 194.045C186.431 192.905 186.408 191.94 186.365 191.153C186.361 191.084 186.331 191.019 186.281 190.972C186.231 190.924 186.164 190.898 186.095 190.898H120.964C120.9 190.899 120.839 190.924 120.793 190.969C120.748 191.014 120.723 191.076 120.723 191.14C120.717 212.896 120.719 234.161 120.728 254.932C120.731 260.55 120.954 265.788 121.397 270.647C121.936 276.531 123.117 282.367 124.939 288.152C125.447 289.767 126.051 291.322 126.751 292.818C126.76 292.838 126.763 292.86 126.762 292.881C126.761 292.902 126.755 292.923 126.744 292.941C126.733 292.959 126.717 292.974 126.699 292.984C126.681 292.994 126.661 293 126.64 293H95.9252C95.9035 293 95.8818 292.995 95.8627 292.984C95.8436 292.974 95.8271 292.96 95.8148 292.941C95.8025 292.923 95.7951 292.902 95.7924 292.88C95.7897 292.858 95.7918 292.835 95.7992 292.814C98.2069 286.66 99.8402 280.257 100.699 273.607C101.572 266.821 101.824 259.956 101.81 252.254C101.776 231.638 101.772 211.248 101.8 191.084C101.8 191.06 101.796 191.037 101.786 191.015C101.777 190.993 101.764 190.973 101.747 190.956C101.731 190.939 101.71 190.926 101.688 190.917C101.666 190.908 101.642 190.902 101.619 190.902H47.4349C47.3495 190.902 47.2673 190.937 47.2064 190.998C47.1457 191.059 47.111 191.142 47.1097 191.229C47.0447 220.053 47.049 243.107 47.1234 260.389C47.1653 270.842 48.676 281.054 52.1713 290.745C52.4595 291.551 52.7527 292.18 53.0502 292.633C53.0728 292.667 53.0854 292.707 53.0873 292.748C53.0891 292.789 53.0804 292.83 53.0609 292.866C53.0414 292.902 53.0122 292.933 52.9769 292.954C52.9416 292.975 52.9009 292.986 52.8597 292.986H22.4467C22.4117 292.987 22.377 292.978 22.3461 292.962C22.3151 292.946 22.2887 292.922 22.2689 292.893C22.2492 292.864 22.2367 292.831 22.2328 292.796C22.2289 292.761 22.2336 292.726 22.2465 292.693C25.872 283.439 27.4203 274.156 28.0199 264.084C28.1903 261.202 28.2766 257.034 28.2797 251.58C28.3014 214.705 28.3014 171.47 28.2797 121.877C28.2796 120.08 28.0895 118.052 27.7084 115.793C27.2962 113.354 26.6473 111.431 25.7611 110.024C23.4588 106.377 20.0669 104.536 15.5863 104.502C6.55708 104.437 1.41582 104.408 0.163451 104.414C0.1278 104.415 0.0924417 104.404 0.063842 104.383C0.0353116 104.362 0.0143974 104.331 0.00524821 104.297C-0.0038649 104.263 -0.00101551 104.226 0.0130607 104.193C0.0273141 104.161 0.0528616 104.133 0.0843498 104.116C0.877489 103.676 1.52221 103.286 2.01794 102.945C3.67891 101.802 6.79497 99.6895 11.3656 96.6094C25.6944 86.9505 45.7377 73.3507 71.4945 55.8086C73.384 54.52 74.513 53.7697 74.8822 53.5586C76.4532 52.6569 77.741 51.5549 79.3539 50.4766C84.9441 46.7271 90.9921 42.6356 97.4965 38.2012C106.638 31.9727 114.301 26.7628 120.486 22.5733C127.985 17.4944 135.286 12.5672 142.388 7.79202C145.769 5.51756 149.487 2.93942 153.543 0.0576422C153.596 0.0207794 153.658 0.000854856 153.722 2.50517e-05ZM47.2543 111.508C47.1413 111.508 47.0492 111.6 47.0492 111.713V174.342C47.0492 174.455 47.1413 174.547 47.2543 174.547H101.591C101.704 174.547 101.795 174.455 101.795 174.342V111.713C101.795 111.6 101.704 111.508 101.591 111.508H47.2543ZM120.955 111.512C120.827 111.512 120.723 111.616 120.723 111.744V174.309C120.723 174.437 120.827 174.541 120.955 174.541H186.225C186.353 174.541 186.457 174.437 186.457 174.309V111.744C186.457 111.616 186.353 111.512 186.225 111.512H120.955ZM205.683 111.508C205.542 111.508 205.427 111.623 205.427 111.764V174.281C205.427 174.422 205.542 174.537 205.683 174.537H259.909C260.05 174.537 260.164 174.422 260.164 174.281V111.764C260.164 111.623 260.05 111.508 259.909 111.508H205.683ZM205.591 60.0664C205.563 60.0654 205.535 60.0726 205.511 60.086C205.487 60.0993 205.466 60.1187 205.453 60.1426C205.439 60.1665 205.432 60.194 205.432 60.2217V95.0225C205.432 95.0632 205.448 95.1021 205.477 95.1309C205.506 95.1596 205.545 95.1758 205.585 95.1758H257.575C257.607 95.1758 257.639 95.1657 257.665 95.1465C257.692 95.1273 257.711 95.0995 257.721 95.0684C257.731 95.0374 257.73 95.0044 257.72 94.9737C257.71 94.9429 257.69 94.9162 257.663 94.8975L205.668 60.0918C205.645 60.0768 205.619 60.0675 205.591 60.0664ZM101.68 60.1123C101.662 60.1135 101.643 60.119 101.628 60.1299C97.228 63.2535 93.1532 66.0711 89.4037 68.5811C70.8205 81.0288 59.0695 88.8809 54.1517 92.1377C52.0698 93.5164 50.7797 94.3812 50.2806 94.7315C50.2387 94.7612 50.2065 94.8038 50.1898 94.8526C50.1733 94.9013 50.1728 94.9542 50.1879 95.003C50.203 95.0516 50.233 95.0943 50.2738 95.124C50.3147 95.1537 50.3647 95.1688 50.4154 95.168H101.531C101.565 95.168 101.599 95.1615 101.63 95.1485C101.662 95.1354 101.691 95.116 101.715 95.0918C101.739 95.0677 101.759 95.0393 101.772 95.0078C101.785 94.9763 101.791 94.9423 101.791 94.9082V60.2188C101.791 60.1994 101.786 60.1798 101.776 60.1631C101.766 60.1466 101.751 60.1331 101.735 60.124C101.718 60.115 101.699 60.1112 101.68 60.1123ZM153.862 25.2139C153.798 25.2139 153.735 25.2327 153.683 25.2686C138.468 35.5966 127.858 42.7163 121.853 46.627C121.503 46.8532 121.238 47.0425 121.058 47.1944C120.942 47.2902 120.848 47.4102 120.784 47.5459C120.719 47.6816 120.686 47.8299 120.686 47.9795V94.8662C120.686 94.9463 120.718 95.0235 120.775 95.0801C120.831 95.1366 120.909 95.168 120.989 95.168H186.193C186.228 95.168 186.262 95.1618 186.294 95.1485C186.326 95.1352 186.356 95.1154 186.38 95.0908C186.405 95.0663 186.425 95.037 186.438 95.0049C186.451 94.9728 186.457 94.9381 186.457 94.9033V47.5147C186.457 47.4275 186.436 47.3418 186.396 47.2657C186.355 47.1895 186.296 47.1251 186.225 47.0782L154.041 25.2686C153.988 25.2328 153.925 25.2139 153.862 25.2139Z" fill="white"/>
</svg>
