<svg width="1162" height="294" viewBox="0 0 1162 294" fill="none" xmlns="http://www.w3.org/2000/svg">
<path d="M988.127 162.742H1020.16V291.898H988.127V162.742Z" fill="white"/>
<path d="M884.132 242.606C884.132 235.304 885.2 228.672 887.335 222.708C889.52 216.684 892.5 211.451 896.275 207.009C904.419 197.516 914.65 192.77 926.967 192.77C939.531 192.77 949.762 197.698 957.659 207.556C965.207 216.867 968.982 228.641 968.982 242.88C968.982 257.18 965.108 269.137 957.361 278.752C949.365 288.671 939.134 293.63 926.669 293.63C914.501 293.63 904.419 288.914 896.424 279.482C888.229 269.746 884.132 257.454 884.132 242.606ZM924.583 286.784C924.98 286.845 925.377 286.876 925.775 286.876H926.818C936.85 286.876 945.268 283.072 952.071 275.466C959.322 267.251 962.948 256.48 962.948 243.154C962.948 230.132 959.546 219.574 952.742 211.481C946.037 203.449 937.371 199.433 926.743 199.433H925.626C925.278 199.433 924.93 199.463 924.583 199.524V286.784Z" fill="white"/>
<path d="M836.753 286.054C839.087 286.602 841.422 286.876 843.756 286.876C846.14 286.876 848.424 286.663 850.609 286.237C852.844 285.75 854.955 285.08 856.941 284.228C861.163 282.403 864.565 280.091 867.147 277.291C868.985 275.344 870.326 274.371 871.17 274.371C873.057 274.371 874.001 275.405 874.001 277.474C874.001 279.543 872.461 282.007 869.382 284.867C862.231 290.709 853.639 293.63 843.607 293.63C830.545 293.63 819.992 288.823 811.946 279.208C804.05 269.716 800.102 257.393 800.102 242.241C800.102 227.881 804.298 216.015 812.691 206.644C821.035 197.394 831.514 192.77 844.128 192.77C851.329 192.77 858.258 194.595 864.912 198.246C869.978 200.924 872.511 203.692 872.511 206.552C872.511 207.769 872.213 208.712 871.617 209.382C871.071 209.99 870.45 210.295 869.755 210.295C868.712 210.295 867.371 209.595 865.732 208.195C862.504 204.422 857.711 201.775 851.354 200.254C849.07 199.707 846.562 199.433 843.83 199.433C841.099 199.433 838.74 199.676 836.753 200.163V286.054Z" fill="white"/>
<path d="M702.959 242.606C702.959 235.304 704.027 228.672 706.162 222.708C708.347 216.684 711.327 211.451 715.102 207.009C723.247 197.516 733.477 192.77 745.794 192.77C758.359 192.77 768.589 197.698 776.486 207.556C784.035 216.867 787.809 228.641 787.809 242.88C787.809 257.18 783.935 269.137 776.188 278.752C768.192 288.671 757.961 293.63 745.496 293.63C733.328 293.63 723.246 288.914 715.251 279.482C707.056 269.746 702.959 257.454 702.959 242.606ZM743.41 286.784C743.807 286.845 744.204 286.876 744.602 286.876H745.645C755.677 286.876 764.095 283.072 770.899 275.466C778.149 267.251 781.775 256.48 781.775 243.154C781.775 230.132 778.373 219.574 771.569 211.481C764.864 203.449 756.198 199.433 745.57 199.433H744.453C744.105 199.433 743.757 199.463 743.41 199.524V286.784Z" fill="white"/>
<path d="M668.616 293.633C649.148 293.633 639.414 282.74 639.414 260.956L639.34 201.078L630.773 201.535C628.091 201.535 626.75 200.287 626.75 197.792C626.75 195.297 628.19 194.05 631.071 194.05L638.222 194.415H639.34V180.267L671.298 162.742V194.415H681.28L688.358 194.05C691.288 194.05 692.753 195.328 692.753 197.884C692.753 199.04 692.331 199.953 691.486 200.622C690.692 201.23 689.773 201.535 688.73 201.535L679.493 201.078H671.298V286.878C677.109 286.756 681.951 284.718 685.825 280.763C687.662 279.059 688.953 276.868 689.698 274.191C690.493 271.513 691.188 269.809 691.784 269.079C692.43 268.288 693.175 267.893 694.019 267.893C694.863 267.893 695.584 268.319 696.18 269.17C696.775 269.962 697.073 270.935 697.073 272.091C697.073 273.187 696.825 274.434 696.328 275.834C695.832 277.172 695.087 278.602 694.094 280.124C691.859 283.531 689.276 286.239 686.346 288.247C681.032 291.837 675.122 293.633 668.616 293.633Z" fill="white"/>
<path d="M534.004 242.606C534.004 235.304 535.072 228.672 537.207 222.708C539.392 216.684 542.372 211.451 546.147 207.009C554.291 197.516 564.522 192.77 576.839 192.77C589.403 192.77 599.634 197.698 607.531 207.556C615.079 216.867 618.854 228.641 618.854 242.88C618.854 257.18 614.98 269.137 607.233 278.752C599.237 288.671 589.006 293.63 576.541 293.63C564.373 293.63 554.291 288.914 546.296 279.482C538.101 269.746 534.004 257.454 534.004 242.606ZM574.455 286.784C574.852 286.845 575.249 286.876 575.647 286.876H576.69C586.722 286.876 595.14 283.072 601.944 275.466C609.194 267.251 612.82 256.48 612.82 243.154C612.82 230.132 609.418 219.574 602.614 211.481C595.909 203.449 587.243 199.433 576.615 199.433H575.498C575.15 199.433 574.802 199.463 574.455 199.524V286.784Z" fill="white"/>
<path d="M468.896 194.412H500.928V223.073C504.355 212.668 508.03 205.031 511.954 200.163C515.927 195.234 519.9 192.77 523.873 192.77C526.108 192.77 527.871 193.5 529.162 194.96C530.503 196.36 531.173 197.942 531.173 199.707C531.173 201.471 530.975 202.871 530.578 203.905C530.18 204.94 529.659 205.822 529.013 206.552C527.672 208.074 526.406 208.834 525.214 208.834C523.327 208.834 521.936 208.591 521.042 208.104C519.503 207.252 518.137 206.826 516.945 206.826C515.753 206.826 514.238 208.013 512.401 210.386C510.563 212.698 508.8 215.923 507.112 220.061C502.989 230.162 500.928 241.116 500.928 252.921V291.896H468.896V194.412Z" fill="white"/>
<path d="M405.425 254.019L412.055 254.384C421.69 254.384 429.636 250.489 435.894 242.7C442.251 234.851 445.578 224.688 445.876 212.214C446.422 192.985 438.874 179.993 423.23 173.239C417.369 170.683 409.746 169.405 400.36 169.405H394.102V291.898H356.109V162.742H384.641C400.037 162.742 409.324 163.016 412.502 163.564C415.681 164.111 418.983 164.811 422.41 165.663C425.887 166.515 429.611 168.371 433.584 171.231C437.607 174.091 441.009 177.499 443.79 181.454C449.402 189.486 452.109 198.918 451.91 209.75C451.612 223.563 448.31 235.064 442.002 244.252C435.596 253.501 426.756 259.221 415.482 261.412C412.204 261.96 409.622 262.233 407.735 262.233C403.265 262.233 401.03 260.743 401.03 257.761C401.03 256.666 401.427 255.783 402.222 255.114C403.017 254.384 404.084 254.019 405.425 254.019Z" fill="white"/>
<path d="M1153.21 108.161C1155.15 108.161 1156.11 109.256 1156.11 111.447C1156.11 113.09 1155.24 115.037 1153.51 117.289C1145.66 127.146 1134.91 132.075 1121.25 132.075C1108.98 132.075 1098.65 127.542 1090.26 118.475C1081.57 109.043 1077.22 97.1164 1077.22 82.6947C1077.22 67.9688 1081.15 55.8595 1088.99 46.3667C1097.29 36.2655 1108.31 31.2148 1122.07 31.2148C1133.1 31.2148 1142.36 35.3223 1149.86 43.5372C1157.95 52.3605 1162 63.9526 1162 78.3135C1162 80.3824 1161.95 82.573 1161.85 84.8854H1112.68V124.043C1116.06 124.895 1119.86 125.321 1124.08 125.321C1133.02 125.321 1140.64 121.7 1146.95 114.459C1148.24 112.877 1149.16 111.629 1149.71 110.717C1150.85 109.013 1152.02 108.161 1153.21 108.161ZM1133.32 39.6123C1130.09 38.4561 1126.44 37.878 1122.37 37.878C1118.3 37.878 1115.07 38.2127 1112.68 38.8821V78.2222H1133.32V39.6123Z" fill="white"/>
<path d="M1001.98 118.11C1001.98 117.197 1002.23 116.376 1002.73 115.646C1003.27 114.854 1003.97 114.459 1004.81 114.459C1005.66 114.459 1006.35 114.763 1006.9 115.372C1006.9 115.372 1007.52 116.071 1008.76 117.471C1013.93 123.008 1021.15 125.777 1030.44 125.777C1036.7 125.777 1040.72 124.195 1042.51 121.031C1043.01 120.179 1043.25 119.327 1043.25 118.475C1043.25 117.562 1043.1 116.71 1042.81 115.919C1042.56 115.067 1041.99 114.063 1041.09 112.907C1040.2 111.69 1038.93 110.26 1037.29 108.617L1030.74 102.137C1019.91 91.792 1012.49 83.3945 1008.46 76.9443C1004.79 71.0418 1002.95 65.0175 1002.95 58.8716C1002.95 51.1435 1005.86 44.6629 1011.67 39.4297C1017.68 33.9531 1025.45 31.2148 1034.98 31.2148C1041.69 31.2148 1046.98 32.158 1050.85 34.0444C1054.73 35.9308 1057.46 37.665 1059.05 39.2472C1060.64 40.7684 1061.43 42.168 1061.43 43.4459C1061.43 46.0625 1060.59 47.3708 1058.9 47.3708C1058.1 47.3708 1057.36 47.0361 1056.66 46.3667C1056.02 45.6365 1054.7 44.4499 1052.71 42.8069C1050.73 41.1031 1048.1 39.7644 1044.82 38.7908C1041.54 37.8172 1038.49 37.3304 1035.66 37.3304C1032.82 37.3304 1030.81 37.878 1029.62 38.9733C1028.48 40.0687 1027.91 41.164 1027.91 42.2593C1027.91 43.2938 1028.08 44.2978 1028.43 45.2714C1028.78 46.1842 1029.42 47.2795 1030.37 48.5574C1032.55 51.7216 1036.05 55.4639 1040.87 59.7844C1045.69 64.1048 1049.76 68.0601 1053.09 71.6503C1056.41 75.2405 1059.02 78.5569 1060.91 81.5994C1064.34 87.076 1066.05 92.6134 1066.05 98.2117C1066.05 103.81 1065.2 108.617 1063.52 112.633C1061.83 116.589 1059.42 119.996 1056.29 122.856C1049.69 129.002 1040.87 132.075 1029.84 132.075C1021 132.075 1013.63 130.006 1007.72 125.868C1003.9 123.252 1001.98 120.666 1001.98 118.11Z" fill="white"/>
<path d="M922.571 132.077C905.139 132.077 896.423 121.641 896.423 100.769V32.8594H928.307V122.219C928.803 122.523 929.424 122.675 930.169 122.675H932.628C936.601 122.675 941.319 119.389 946.782 112.818C948.42 110.809 949.96 108.619 951.4 106.246V32.8594H983.433V130.343H951.4V116.286C943.305 126.813 933.695 132.077 922.571 132.077Z" fill="white"/>
<path d="M792.503 81.0518C792.503 73.7497 793.571 67.1169 795.706 61.1535C797.891 55.1293 800.871 49.8961 804.646 45.454C812.79 35.9612 823.021 31.2148 835.338 31.2148C847.903 31.2148 858.133 36.1438 866.03 46.0016C873.579 55.3118 877.353 67.0865 877.353 81.3256C877.353 95.6256 873.479 107.583 865.732 117.197C857.736 127.116 847.505 132.075 835.04 132.075C822.872 132.075 812.79 127.359 804.795 117.927C796.6 108.191 792.503 95.8994 792.503 81.0518ZM832.954 125.23C833.351 125.29 833.748 125.321 834.146 125.321H835.189C845.221 125.321 853.639 121.518 860.443 113.911C867.693 105.696 871.319 94.9258 871.319 81.5994C871.319 68.5773 867.917 58.0197 861.113 49.9265C854.408 41.8942 845.742 37.878 835.114 37.878H833.997C833.649 37.878 833.301 37.9084 832.954 37.9693V125.23Z" fill="white"/>
<path d="M772.017 117.105L772.241 126.415C772.241 127.997 771.868 129.214 771.123 130.066C770.379 130.918 769.509 131.344 768.516 131.344C767.573 131.344 766.803 130.948 766.207 130.157C765.66 129.366 765.387 128.362 765.387 127.145C765.387 125.928 765.511 124.559 765.76 123.038C766.107 121.151 766.281 116.435 766.281 108.89V42.2581H728.81V130.34H690.743V1.18373H728.81V35.5949C739.538 35.5949 748.08 35.5949 754.437 35.5949C760.843 35.5949 764.791 35.5645 766.281 35.5037V19.6216C766.281 14.3275 766.207 10.8895 766.058 9.30733L765.76 6.56904C765.71 5.71712 765.685 4.98691 765.685 4.3784C765.685 1.57926 766.728 0.179688 768.814 0.179688C769.559 0.179688 770.329 0.544793 771.123 1.275C771.918 2.00522 772.315 3.22224 772.315 4.92606L772.017 16.6094V35.1386L776.711 34.3171C777.605 34.3171 778.349 34.6517 778.945 35.3211C779.541 35.9296 779.839 36.7511 779.839 37.7856C779.839 40.1588 778.3 41.4975 775.221 41.8017C774.674 41.9234 774.128 42.0147 773.582 42.0756C773.085 42.0756 772.564 42.106 772.017 42.1668V117.105Z" fill="white"/>
<path d="M628.762 108.161C630.699 108.161 631.668 109.256 631.668 111.447C631.668 113.09 630.799 115.037 629.06 117.289C621.214 127.146 610.461 132.075 596.804 132.075C584.537 132.075 574.207 127.542 565.814 118.475C557.123 109.043 552.777 97.1164 552.777 82.6947C552.777 67.9688 556.701 55.8595 564.548 46.3667C572.841 36.2655 583.867 31.2148 597.623 31.2148C608.649 31.2148 617.911 35.3223 625.41 43.5372C633.505 52.3605 637.553 63.9526 637.553 78.3135C637.553 80.3824 637.503 82.573 637.404 84.8854H588.237V124.043C591.614 124.895 595.413 125.321 599.635 125.321C608.574 125.321 616.198 121.7 622.505 114.459C623.796 112.877 624.715 111.629 625.261 110.717C626.403 109.013 627.571 108.161 628.762 108.161ZM608.872 39.6123C605.644 38.4561 601.994 37.878 597.921 37.878C593.849 37.878 590.621 38.2127 588.237 38.8821V78.2222H608.872V39.6123Z" fill="white"/>
<path d="M509.049 31.2174C526.531 31.2174 535.271 41.623 535.271 62.434V130.344H503.238V41.5317C502.345 40.8015 501.153 40.4364 499.663 40.4364C498.222 40.4364 496.708 40.8623 495.118 41.7142C493.529 42.5661 491.866 43.7527 490.127 45.274C486.403 48.6208 483.1 52.8195 480.219 57.8702V130.344H448.187V1.1875H480.219V48.2861C488.712 36.907 498.322 31.2174 509.049 31.2174Z" fill="white"/>
<path d="M432.617 3.55978C432.617 6.35892 430.208 7.7585 425.391 7.7585H408.108V130.343H369.966V7.7585H358.792C354.968 7.7585 352.336 7.97147 350.896 8.39743C349.008 8.88424 347.643 9.12764 346.798 9.12764C344.265 9.12764 342.999 7.91062 342.999 5.47659C342.999 2.61659 345.457 1.18659 350.374 1.18659H416.824C420.251 1.18659 422.783 1.00404 424.422 0.638935C426.409 0.212978 427.899 0 428.892 0C431.375 0 432.617 1.18659 432.617 3.55978Z" fill="white"/>
<path d="M153.721 2.60144e-05C153.785 -0.00080379 153.848 0.0182421 153.901 0.053737L307.681 104.261C307.7 104.274 307.715 104.292 307.722 104.314C307.73 104.335 307.73 104.359 307.723 104.381C307.716 104.403 307.703 104.422 307.685 104.436C307.667 104.449 307.643 104.456 307.621 104.456C301.628 104.425 296.521 104.447 292.3 104.522C281.285 104.712 279.193 114.301 279.193 123.23C279.19 139.6 279.192 185.595 279.202 261.211C279.202 265.146 279.552 269.692 280.252 274.849C281.089 280.99 282.645 286.935 284.919 292.68C284.933 292.715 284.937 292.752 284.933 292.789C284.929 292.826 284.916 292.863 284.895 292.894C284.874 292.924 284.846 292.95 284.813 292.968C284.78 292.986 284.743 292.995 284.705 292.995H254.371C254.345 292.995 254.319 292.988 254.296 292.976C254.273 292.963 254.253 292.945 254.239 292.923C254.224 292.901 254.215 292.876 254.212 292.85C254.21 292.823 254.213 292.797 254.223 292.772C258.862 280.636 260.131 267.57 260.14 254.337C260.159 229.206 260.16 208.172 260.145 191.237C260.145 191.147 260.108 191.061 260.043 190.997C259.979 190.934 259.891 190.898 259.8 190.898H205.705C205.635 190.898 205.568 190.926 205.518 190.976C205.468 191.025 205.44 191.093 205.44 191.163C205.384 230.948 205.392 254.605 205.463 262.136C205.566 272.703 207.419 282.903 211.023 292.735C211.033 292.765 211.036 292.796 211.032 292.827C211.027 292.858 211.016 292.889 210.997 292.914C210.979 292.94 210.955 292.96 210.927 292.975C210.899 292.989 210.868 292.995 210.836 292.995H180.586C180.557 292.996 180.528 292.989 180.502 292.976C180.477 292.962 180.454 292.943 180.438 292.919C180.421 292.895 180.411 292.868 180.408 292.839C180.404 292.81 180.409 292.781 180.419 292.754C182.176 288.335 183.502 283.547 184.398 278.391C185.718 270.805 186.387 262.985 186.406 254.932C186.452 235.121 186.462 214.825 186.434 194.045C186.431 192.905 186.407 191.94 186.364 191.153C186.36 191.084 186.331 191.019 186.281 190.972C186.23 190.924 186.163 190.898 186.094 190.898H120.964C120.9 190.898 120.839 190.924 120.793 190.969C120.748 191.014 120.722 191.076 120.722 191.14C120.716 212.896 120.718 234.161 120.727 254.932C120.73 260.55 120.953 265.788 121.396 270.647C121.935 276.531 123.116 282.367 124.938 288.152C125.446 289.767 126.051 291.322 126.751 292.818C126.76 292.838 126.764 292.86 126.762 292.881C126.761 292.902 126.754 292.923 126.743 292.941C126.732 292.959 126.717 292.974 126.699 292.984C126.681 292.995 126.66 293 126.639 293H95.9242C95.9027 293 95.8817 292.995 95.8627 292.984C95.8437 292.974 95.8271 292.96 95.8149 292.941C95.8026 292.923 95.7941 292.902 95.7914 292.88C95.7887 292.858 95.7918 292.835 95.7992 292.814C98.207 286.66 99.8393 280.257 100.698 273.607C101.571 266.821 101.823 259.956 101.809 252.254C101.775 231.638 101.771 211.248 101.799 191.084C101.799 191.06 101.795 191.037 101.786 191.015C101.776 190.993 101.763 190.973 101.746 190.956C101.73 190.939 101.71 190.926 101.688 190.917C101.666 190.908 101.642 190.902 101.619 190.902H47.435C47.3495 190.902 47.2673 190.937 47.2065 190.998C47.1456 191.059 47.11 191.142 47.1088 191.229C47.0437 220.053 47.0491 243.107 47.1234 260.389C47.1653 270.842 48.6759 281.055 52.1713 290.746C52.4594 291.551 52.7518 292.181 53.0492 292.633C53.0719 292.667 53.0855 292.707 53.0873 292.748C53.0891 292.789 53.0795 292.83 53.06 292.866C53.0404 292.902 53.0114 292.933 52.976 292.954C52.9406 292.975 52.9 292.986 52.8588 292.986H22.4457C22.4108 292.987 22.3761 292.978 22.3451 292.962C22.3142 292.946 22.2877 292.921 22.268 292.893C22.2484 292.864 22.2357 292.831 22.2318 292.796C22.228 292.761 22.2336 292.726 22.2465 292.693C25.872 283.439 27.4193 274.156 28.019 264.084C28.1894 261.202 28.2766 257.034 28.2797 251.58C28.3014 214.705 28.3014 171.47 28.2797 121.877C28.2797 120.08 28.0886 118.052 27.7074 115.793C27.2953 113.354 26.6464 111.431 25.7602 110.024C23.4578 106.377 20.0661 104.537 15.5854 104.503C6.5555 104.438 1.41442 104.408 0.16251 104.414C0.126893 104.415 0.0914734 104.404 0.0629006 104.383C0.0345339 104.362 0.014423 104.331 0.00528342 104.297C-0.00385244 104.263 -0.0010724 104.226 0.0130959 104.193C0.0273493 104.161 0.0519202 104.133 0.0834084 104.116C0.87659 103.676 1.52123 103.286 2.017 102.945C3.67792 101.802 6.79409 99.6905 11.3647 96.6104C25.6934 86.9515 45.7366 73.3508 71.4936 55.8086C73.3838 54.5195 74.5135 53.7693 74.8822 53.5586C76.4533 52.6569 77.741 51.555 79.3539 50.4766C84.944 46.7271 90.9913 42.6355 97.4955 38.2012C106.637 31.9726 114.301 26.7628 120.486 22.5733C127.984 17.4946 135.285 12.568 142.387 7.79299C145.768 5.51849 149.487 2.93951 153.543 0.0576432C153.595 0.0209632 153.657 0.000911043 153.721 2.60144e-05ZM47.2533 111.508C47.1404 111.508 47.0492 111.6 47.0492 111.713V174.342C47.0492 174.455 47.1404 174.547 47.2533 174.547H101.59C101.703 174.547 101.795 174.455 101.795 174.342V111.713C101.795 111.6 101.703 111.508 101.59 111.508H47.2533ZM120.955 111.512C120.827 111.512 120.723 111.616 120.723 111.744V174.309C120.723 174.437 120.827 174.541 120.955 174.541H186.225C186.353 174.541 186.457 174.437 186.457 174.309V111.744C186.457 111.616 186.353 111.512 186.225 111.512H120.955ZM205.682 111.508C205.541 111.508 205.427 111.623 205.427 111.764V174.281C205.427 174.422 205.541 174.537 205.682 174.537H259.908C260.049 174.537 260.163 174.422 260.163 174.281V111.764C260.163 111.623 260.049 111.508 259.908 111.508H205.682ZM205.59 60.0664C205.563 60.0654 205.534 60.0726 205.51 60.086C205.486 60.0993 205.465 60.1188 205.452 60.1426C205.438 60.1665 205.431 60.194 205.431 60.2217V95.0225C205.431 95.0631 205.447 95.1021 205.476 95.1309C205.505 95.1596 205.544 95.1758 205.584 95.1758H257.575C257.607 95.1758 257.639 95.1657 257.665 95.1465C257.692 95.1273 257.711 95.0994 257.721 95.0684C257.731 95.0375 257.73 95.0043 257.72 94.9737C257.71 94.9428 257.689 94.9162 257.663 94.8975L205.668 60.0918C205.645 60.0767 205.618 60.0675 205.59 60.0664ZM101.68 60.1123C101.662 60.1134 101.643 60.1191 101.628 60.1299C97.2281 63.2535 93.1532 66.0711 89.4037 68.5811C70.8204 81.0288 59.0696 88.8809 54.1518 92.1377C52.0694 93.5167 50.7786 94.3813 50.2797 94.7315C50.2378 94.7612 50.2065 94.8038 50.1899 94.8526C50.1732 94.9013 50.1719 94.9542 50.1869 95.003C50.202 95.0516 50.232 95.0943 50.2729 95.124C50.3138 95.1539 50.3636 95.1688 50.4145 95.168H101.531C101.565 95.168 101.599 95.1615 101.63 95.1485C101.662 95.1354 101.69 95.1159 101.714 95.0918C101.738 95.0677 101.758 95.0393 101.771 95.0078C101.784 94.9763 101.79 94.9423 101.79 94.9082V60.2188C101.79 60.1994 101.785 60.1798 101.775 60.1631C101.765 60.1466 101.75 60.1331 101.734 60.124C101.717 60.115 101.699 60.1113 101.68 60.1123ZM153.861 25.2139C153.797 25.214 153.735 25.2329 153.683 25.2686C138.468 35.5968 127.857 42.7163 121.852 46.627C121.502 46.8532 121.237 47.0425 121.057 47.1944C120.941 47.2902 120.847 47.4102 120.783 47.5459C120.718 47.6816 120.686 47.8299 120.686 47.9795V94.8662C120.686 94.9463 120.717 95.0235 120.774 95.0801C120.83 95.1367 120.908 95.168 120.988 95.168H186.192C186.226 95.168 186.261 95.1617 186.293 95.1485C186.325 95.1352 186.355 95.1153 186.379 95.0908C186.404 95.0663 186.424 95.037 186.437 95.0049C186.45 94.9728 186.457 94.9381 186.457 94.9033V47.5147C186.457 47.4275 186.435 47.3418 186.395 47.2657C186.354 47.1896 186.296 47.1251 186.225 47.0782L154.04 25.2686C153.987 25.2329 153.924 25.2139 153.861 25.2139Z" fill="#DCB865"/>
</svg>
