<svg width="380" height="382" viewBox="0 0 380 382" fill="none" xmlns="http://www.w3.org/2000/svg">
<path d="M323.258 270.668C308.725 303.759 280.698 329.029 247.275 341.733C218.221 352.773 188.044 354.321 156.745 346.376C151.306 344.989 145.433 342.66 140.194 340.456C113.447 329.222 91.9901 311.489 75.8239 287.257C71.2984 280.48 67.902 273.979 65.6348 267.756C62.3698 258.791 57.0392 249.438 54.0486 241.891C48.7668 228.596 45.4787 217.256 44.1842 207.873C39.3335 172.781 45.7035 140.88 63.2943 112.171C76.6305 90.4013 95.2781 73.055 119.237 60.1325C124.907 57.0677 130.371 55.3091 136.123 52.8353C137.656 52.1773 139.987 51.3914 143.116 50.4778C163.154 44.5938 183.696 43.2069 204.743 46.3171C220.111 48.5849 234.717 52.3982 250 60.6436C277.98 75.749 298.579 97.209 311.798 125.024C313.662 128.947 316.353 135.703 319.872 145.289C321.488 149.709 324.077 156.503 327.639 165.672C330.624 173.377 332.967 182.857 334.669 194.111C336.533 206.468 336.779 217.877 335.408 228.341C333.933 239.559 331.25 250.46 327.357 261.046C326.905 262.264 325.539 265.471 323.258 270.668Z" fill="#0A090C"/>
<path d="M319.548 198.001C318.058 215.741 313.089 233.013 304.925 248.833C296.76 264.653 285.559 278.709 271.962 290.2C258.365 301.691 242.637 310.391 225.678 315.804C208.718 321.216 190.859 323.236 173.119 321.746C137.292 318.738 104.127 301.621 80.9198 274.161C57.713 246.7 46.3654 211.145 49.3733 175.318C52.3813 139.49 69.4984 106.325 96.9591 83.1184C124.42 59.9116 159.975 48.564 195.802 51.572C213.542 53.0614 230.815 58.0303 246.634 66.1951C262.454 74.3599 276.51 85.5606 288.001 99.1578C299.492 112.755 308.192 128.482 313.605 145.442C319.018 162.401 321.037 180.261 319.548 198.001Z" fill="#C6FF4D"/>
<path d="M257.417 137.731C257.931 154.799 255.299 171.57 249.521 188.046C247.466 193.918 245.062 198.127 242.997 203.557C242.963 203.643 242.951 203.737 242.963 203.829C242.974 203.921 243.009 204.009 243.063 204.085C243.117 204.16 243.189 204.221 243.272 204.262C243.356 204.303 243.448 204.322 243.541 204.318C255.268 203.8 265.37 207.251 273.847 214.671C282.522 222.242 284.887 234.267 276.816 243.354C268.908 252.243 258.767 256.411 246.391 255.856C242.875 255.704 242.738 257.326 240.442 258.981C226.291 269.151 211.805 274.98 196.985 276.47C187.759 277.396 178.862 277.293 170.294 276.16C168.345 275.901 163.974 274.712 157.182 272.592C151.621 270.853 147.386 269.23 144.477 267.722C128.332 259.369 113.002 245.158 105.681 228.127C105.585 227.904 105.439 227.706 105.256 227.548C105.073 227.39 104.858 227.277 104.625 227.216C92.0601 223.944 78.662 214.974 74.5657 202.279C71.6904 193.359 75.4137 183.943 83.4469 178.43C93.7324 171.366 111.124 173.661 121.991 178.424C122.049 178.45 122.112 178.462 122.176 178.458C122.239 178.454 122.301 178.435 122.355 178.402C122.409 178.369 122.455 178.323 122.488 178.268C122.521 178.214 122.54 178.152 122.543 178.089C122.963 161.874 125.083 144.289 131.015 129.015C134.379 120.32 136.846 113.66 140.725 108.776C140.779 108.711 140.816 108.635 140.833 108.552C140.85 108.47 140.846 108.384 140.822 108.303C140.799 108.222 140.756 108.146 140.697 108.084C140.639 108.022 140.566 107.974 140.485 107.945C131.472 104.685 124.209 95.7656 126.843 85.6982C126.945 85.2847 127.197 84.9238 127.55 84.6853C127.903 84.4467 128.332 84.3475 128.754 84.4066C129.176 84.4657 129.561 84.6791 129.835 85.0055C130.108 85.3319 130.251 85.7481 130.236 86.1739C130.026 94.3584 133.691 100.401 141.232 104.3C141.717 104.548 142.274 104.611 142.8 104.48C143.326 104.349 143.786 104.032 144.094 103.587L147.158 99.1825C147.253 99.0432 147.32 98.8861 147.353 98.7209C147.387 98.5557 147.386 98.386 147.352 98.2222C147.318 98.0584 147.25 97.9041 147.154 97.7687C147.058 97.6333 146.934 97.5197 146.792 97.4351C141.016 93.9577 138.399 87.3599 140.191 81.0607C140.266 80.7877 140.427 80.5461 140.65 80.3716C140.873 80.197 141.146 80.0989 141.429 80.0916L142.218 80.0625C142.376 80.0559 142.534 80.0846 142.68 80.1465C142.826 80.2083 142.956 80.3018 143.061 80.4202C143.167 80.5385 143.244 80.6788 143.289 80.8309C143.333 80.9829 143.343 81.143 143.318 81.2994C142.525 86.3035 144.12 90.4034 148.104 93.5991C149.585 94.7964 150.892 94.8942 152.025 93.8925C155.311 91.0052 158.057 88.9308 160.261 87.6694C173.21 80.2564 186.546 84.7141 192.763 97.9923C196.013 104.91 197.714 112.301 197.864 120.166C197.869 120.293 197.913 120.416 197.992 120.517C198.071 120.617 198.179 120.69 198.301 120.726C198.424 120.761 198.554 120.757 198.674 120.714C198.794 120.67 198.898 120.591 198.97 120.485C202.721 114.617 206.928 109.518 211.592 105.188C220.514 96.8888 234.362 92.9846 244.54 102.101C249.744 106.766 253.235 112.563 255.014 119.492C255.109 119.869 255.335 120.199 255.651 120.427C255.968 120.654 256.356 120.763 256.746 120.734C262.945 120.313 265.966 117.121 268.96 111.853C269.138 111.544 269.423 111.311 269.761 111.198C270.099 111.085 270.467 111.099 270.795 111.238C271.123 111.377 271.389 111.631 271.543 111.952C271.697 112.273 271.728 112.64 271.631 112.983C269.824 119.269 265.129 123.21 257.548 124.807C257.297 124.86 257.073 125.001 256.916 125.204C256.76 125.407 256.68 125.659 256.692 125.916L256.874 131.129C256.885 131.436 257.004 131.73 257.212 131.959C257.419 132.188 257.702 132.337 258.009 132.381C266.585 133.613 274.045 129.387 278.028 121.567C278.194 121.234 278.471 120.97 278.811 120.82C279.152 120.67 279.534 120.644 279.893 120.745C280.252 120.847 280.565 121.071 280.779 121.379C280.994 121.686 281.095 122.058 281.067 122.43C280.224 132.612 267.094 137.769 258.156 137.019C258.06 137.01 257.963 137.021 257.872 137.054C257.781 137.086 257.698 137.137 257.628 137.205C257.558 137.272 257.503 137.354 257.466 137.445C257.43 137.536 257.413 137.633 257.417 137.731Z" fill="#0A090C"/>
<path d="M193.845 131.549C185.622 149.592 181.338 167.953 180.994 186.634C180.979 187.558 180.752 188.468 180.329 189.296C178.436 193.008 175.17 197.784 170.531 203.626C164.747 210.889 155.761 219.231 146.958 218.433C128.206 216.715 125.675 181.548 126.711 168.211C127.528 157.777 129.384 144.747 133.462 133.811C139.275 118.253 146.228 104.018 159.028 93.5521C161.46 91.5627 164.1 90.0913 166.945 89.1381C175.264 86.3315 181.859 88.582 186.729 95.8897C193.007 105.322 194.719 117.304 194.492 128.671C194.479 129.668 194.258 130.648 193.845 131.549Z" fill="#F7F8FC"/>
<path d="M234.698 101.002C242.798 102.961 248.913 111.677 251.697 125.23C254.481 138.783 253.707 156.065 249.544 173.272C245.381 190.48 238.171 206.205 229.5 216.987C220.829 227.769 211.407 232.726 203.307 230.766C195.207 228.807 189.092 220.092 186.308 206.538C183.524 192.985 184.298 175.704 188.461 158.496C192.624 141.288 199.834 125.563 208.505 114.781C217.176 103.999 226.598 99.0425 234.698 101.002Z" fill="#F7F8FC"/>
<path d="M180.409 197.859C180.437 197.819 180.477 197.789 180.523 197.772C180.569 197.756 180.619 197.754 180.667 197.767C180.714 197.78 180.756 197.808 180.787 197.846C180.818 197.883 180.836 197.93 180.84 197.979C181.86 212.669 189.523 236.834 208.348 235.267C208.602 235.245 208.857 235.298 209.082 235.419C209.307 235.539 209.492 235.722 209.615 235.945C215.113 245.809 223.419 252.046 234.534 254.657C234.675 254.688 234.803 254.761 234.903 254.865C235.003 254.968 235.07 255.1 235.096 255.241C235.123 255.383 235.107 255.53 235.05 255.663C234.994 255.795 234.9 255.909 234.78 255.989C228.331 260.287 221.357 263.922 213.86 266.893C211.369 267.876 206.442 269.048 199.079 270.409C177.96 274.311 156.287 269.046 138.517 257.337C127.793 250.269 119.104 241.063 112.45 229.719C112.384 229.608 112.351 229.481 112.355 229.351C112.359 229.222 112.4 229.097 112.473 228.99C112.546 228.884 112.648 228.8 112.766 228.749C112.885 228.699 113.016 228.683 113.144 228.704C122.187 230.191 131.981 226.137 138.992 220.872C139.163 220.741 139.365 220.656 139.578 220.625C139.792 220.595 140.01 220.621 140.21 220.7C147.264 223.399 153.956 222.788 160.285 218.869C168.408 213.852 174.946 205.698 180.409 197.859Z" fill="#C6FF4D"/>
<path d="M135.38 218.318C128.702 224.159 117.872 225.634 109.141 224.269C94.8082 222.029 73.7954 208.76 78.4699 190.996C80.3212 183.998 88.2563 179.085 94.8303 178.313C102.885 177.368 115.823 178.335 122.51 184.452C122.72 184.643 122.889 184.874 123.006 185.132C123.124 185.39 123.188 185.669 123.195 185.952C123.207 186.279 123.619 188.941 124.432 193.936C125.932 203.194 128.916 211.099 135.407 217.14C135.487 217.216 135.551 217.309 135.593 217.411C135.636 217.514 135.657 217.624 135.654 217.735C135.651 217.846 135.626 217.955 135.578 218.055C135.531 218.156 135.463 218.245 135.38 218.318Z" fill="#FA69AB"/>
<path d="M214.277 235.363C214.241 235.284 214.22 235.2 214.215 235.113C214.211 235.027 214.224 234.941 214.253 234.86C214.282 234.78 214.326 234.706 214.384 234.643C214.442 234.58 214.511 234.53 214.589 234.495C224.751 229.888 234.349 218.521 239.779 209.082C239.844 208.966 239.936 208.866 240.048 208.79C240.16 208.715 240.288 208.666 240.424 208.648C250.862 207.187 260.28 209.472 268.675 215.502C274.039 219.35 279.159 226.516 277.434 233.298C275.084 242.542 267.794 248.142 258.717 250.467C246.054 253.712 234.402 252.07 223.759 245.541C219.473 242.916 216.313 239.523 214.277 235.363Z" fill="#FA69AB"/>
<path d="M173.853 166.901C178.894 145.575 173.617 126.073 162.066 123.342C150.515 120.612 137.065 135.687 132.024 157.014C126.983 178.34 132.26 197.842 143.811 200.573C155.362 203.303 168.812 188.228 173.853 166.901Z" fill="#0A090C"/>
<path d="M231.991 179.82C237.163 158.762 231.991 139.39 220.439 136.553C208.887 133.716 195.329 148.487 190.157 169.546C184.985 190.604 190.157 209.976 201.709 212.813C213.261 215.65 226.818 200.879 231.991 179.82Z" fill="#0A090C"/>
</svg>
